<svg version="1" xmlns="http://www.w3.org/2000/svg" width="2150.667" height="2150.667" viewBox="0 0 1613.000000 1613.000000"><path d="M0 806.5V1613h1613V0H0v806.5zM847 123c107.2 6.8 209.2 37.1 292 86.8 81.9 49.1 142.9 112.1 179.6 185.5 23.1 46.1 35 92.9 36.7 144.4l.2 8.3h-16.1l.3 9.2c.6 16 .4 15.6 7.1 16.3 19.9 2.4 43.6 9.4 63.2 18.7 46.1 21.9 81.6 57.3 104.6 104.3 11.7 24 18.5 46.4 22 72.2 2.2 16.9 2.3 45.6 0 61.8-10.9 77.7-56.7 142.4-124.1 175.5-26.8 13.1-58.6 21-85 21-8.3 0-9.6-.2-10.5-1.9-.7-1.4-1-73.4-1-225.6V575.9l2.3-2.3c1.3-1.3 2.2-2.7 2.1-3.2-.2-.5-.6-5.7-.9-11.7l-.7-10.7h-6.4c-3.5 0-6.4-.3-6.4-.8-1.5-42.1-8.3-75.4-22.5-110.4-6.3-15.3-10.8-23.8-19.1-36.3-53.7-80.5-148.9-148.1-257.4-182.7-29-9.2-51.9-14.8-84.9-20.8-43.7-7.9-72.4-10.4-119.6-10.4-48.3 0-76.7 2.5-122.5 11-83.6 15.3-154 43.1-220.5 86.9-50.4 33.2-98.2 81.1-124.4 124.7-14.4 23.9-27.6 63.2-32.6 96.5-1.1 7.1-3.4 35.3-3.5 42 0 .2-2.9.3-6.4.3h-6.3l-.9 12-.9 12h4.2c2.4 0 4.8.6 5.7 1.6 1.4 1.4 1.6 23.3 1.6 226.3 0 218.2-.1 224.8-1.9 226.5-1.5 1.4-3.1 1.6-10 1l-8.1-.7v4.4c0 2.4 1.1 11.4 2.4 19.9 7.3 46.1 23 72.3 48.6 81.1 8.2 2.8 23.3 3.1 32.8.6 27.1-7.2 56.4-29.3 75.4-56.7 6.3-9.1 17.9-29.2 25.3-44 16.1-32.2 49.9-112.2 68.6-162.6 23.7-63.9 27.9-77.3 38-119.8 5-21 11-46 13.4-55.6 4.9-19.4 10.3-43.4 10.9-48.3.3-1.8.5-3.2.6-3.2.1 0 .4-1.1.6-2.5.5-3 1.2-6.5 1.4-6.5.1 0 .3-1.1.5-2.5 1.3-9.7 14.4-60.7 23.2-90.3 3.1-10.3 5.3-19 5-19.3-.8-.8-15.9 3-28.2 7.1-44.5 14.9-81.8 37.4-110 66.6-16.6 17.2-31.5 37.9-39.1 54.5-15.8 34.8-17.9 85.5-4.1 103.5 1.5 2 5.4 5.1 8.7 7 10.2 5.7 12.4 7.3 14.7 10.8 3.6 5.3 5.3 12.4 6.5 27.1 1 12.2 1 13.8-.6 17.2-2.4 5-5.8 6.1-14.9 4.8-25.2-3.6-47.4-17-63.8-38.5-14.2-18.6-20.1-37.5-20.2-64 0-37.1 12.6-73.6 38.8-113 11.5-17.2 19.5-26.7 37.4-44.5 33.5-33.3 71.1-57.6 114.7-74.1 21.5-8.1 54.2-16 72.1-17.5 4.5-.4 8.5-.9 9-1.3.5-.3 1.9-2.3 3.1-4.3 4.7-7.7 13-12.9 23.7-14.9 7.7-1.4 14.7.6 19.7 5.8 4.3 4.4 5.8 7.9 5.8 13.3 0 3.5.3 4 2.8 4.6 12.3 2.6 26.9 6.6 32.7 8.9 28.7 11.3 48.2 34.1 55.5 64.9 13.9 58.2-15 133.5-73.6 192-12.6 12.5-30.4 27.9-41.6 36-3.8 2.6-6.8 5.2-6.8 5.6 0 .5 2 3.8 4.5 7.4 9.5 13.5 15.9 31.1 25.4 69.1 4 16.2 6.8 23.4 10.7 27.2 4 4.2 9.5 4.4 17.1.9 11.3-5.3 10.4-4.3 55.8-67.6 19.1-26.7 35.1-48.7 35.4-49 1.4-1 21.1-29.1 21.1-30 0-.6.5-1 1-1 .6 0 1-.6 1-1.4 0-.8.7-1.6 1.5-2 .8-.3 1.5-1.2 1.5-2.1 0-.8.5-1.5 1-1.5.6 0 1-.6 1-1.4 0-.8.7-1.6 1.5-2 .8-.3 1.5-1.2 1.5-2.1 0-.8.4-1.5.9-1.5s1.2-.8 1.5-1.8c.3-.9 1.6-2.9 2.8-4.4 1.3-1.4 3-3.6 3.8-4.8.8-1.2 2-2.8 2.5-3.4.6-.6 1.9-2.4 2.9-4.1 2-3.1 2.3-3.4 5.9-7.6 1.2-1.5 3.1-3.8 4.1-5.3 5.8-8.1 8.8-9.3 22.7-9.5 12.7-.2 23.3 6.3 25.9 15.9 1.4 4.8.6 10.3-4 27-1.1 4.1-4.2 16.9-7 28.5-2.7 11.5-6.3 25.9-8 32-1.6 6-3.2 12.8-3.6 15-.3 2.2-1 4.5-1.5 5.1-.5.6-.6 1.4-.2 1.7.3.4.1 1.3-.5 2-.7.8-.9 1.7-.6 2 .3.3.2 1.1-.2 1.8s-.9 2.7-1.1 4.4c-.2 1.6-.6 3.7-.9 4.5-.4.8-.8 2.4-.9 3.5-.2 1.1-.8 5.5-1.4 9.8-.6 4.3-1.1 10.5-1.1 13.8 0 7.3.7 7.5 10.4 1.7 13.3-7.8 34.5-32.1 40.6-46.4 2.5-5.8 6.4-23.3 12.5-55.9 6.9-37.4 13.3-66.4 16-72.2 4.5-9.9 14.7-18.1 27.3-21.8 10.9-3.3 23.5 2.4 25.9 11.5 1.2 4.5.9 7.8-2.3 23-2.8 13.6-3.5 16.9-3.8 18.7-.1.7-.5 1.5-.8 1.9-.4.3-.4 1.2-.2 1.9.3.7 0 1.6-.5 2-.6.3-.9 1.1-.6 1.6.4.5.3 1.5-.1 2.1-.5.7-.9 1.9-.9 2.8-.1.8-3 13.2-6.3 27.5-3.4 14.3-8.4 36.1-11.1 48.5-2.7 12.4-5.3 23.4-5.7 24.5-.3 1.1.8 0 2.5-2.5 1.8-2.5 6.1-8.6 9.6-13.5 8.2-11.5 17.9-28.3 23.7-41 5.5-12.1 6.9-16.2 9.8-28.5 9.1-39.5 12.3-49.2 19.3-58.8 4.9-6.7 12.2-13.3 20.7-18.8 3.9-2.5 7.3-5.1 7.6-5.8.3-.7-1.3-3.9-3.4-7.2-7.3-10.9-10.2-22.9-10.2-41.5 0-18.7 4-35.4 12.5-52.9 6.5-13.1 11.6-20.3 21.4-30 17.1-16.8 35.3-23.8 55-21.1 18.5 2.5 29.8 13.5 34.8 33.8 2.3 9.3 2.3 33.6.1 45.8-5.2 27.8-16.6 53.4-26.9 60.2-9.8 6.5-25.9 0-25.9-10.5 0-2.5 1.2-5.4 3.9-9.6 6.5-10 13.7-29.9 16-44.6.6-3.6 1.1-11 1.1-16.5 0-8.5-.4-10.8-2.4-15.2-2.2-4.6-3-5.3-6.6-6.3-2.3-.6-6.1-.8-8.4-.5-22.2 3.6-39.6 31.6-39.6 63.9 0 21.8 5.5 32.9 22.2 44.6 7 4.9 8.8 10.8 5.1 17-1.5 2.7-5.5 4.9-11.2 6.6-3.7 1-12.2 6.2-16 9.7-13.5 12.7-14.5 31.9-2.3 42.9 11.7 10.6 30.5 8.3 43.9-5.5 5.9-6 17.7-21.6 16.9-22.4-.2-.2-2.3.5-4.7 1.5-7.1 3.1-10.4 3.5-13.7 1.8-8.8-4.6-7.9-20 1.8-29.5 5.6-5.5 7.6-7.1 8.9-7.1.5 0 1.1-.3 1.3-.8.2-.4 3.9-3.1 8.2-6.1 22.6-15.2 33.2-17 55.6-9.4 22.9 7.7 39 24.7 47.6 50.1 5.5 16.3 6.5 22.8 7.1 45.7.6 24.3-.7 36.5-6.3 62-21.9 98.3-90.9 189.5-172.4 227.7-6.9 3.3-13.2 6.3-14 6.7-.8.4-2.8 5.3-4.3 10.7-4.9 17.5-15.7 59.8-15.2 60.2.2.2 6.9-1.8 14.9-4.4 10.3-3.4 14.6-5.3 14.6-6.4 0-1.1 13-5.8 49.8-17.8 27.3-9 50-16.3 50.5-16.3.4.1.7.7.7 1.5s.4 1.8 1 2.1c.5.3 19-5.5 41-12.9l40.1-13.6 1.1 3c.8 2.5 1.3 2.8 2.8 2 1-.6 2.2-1.9 2.5-3.1 1.3-3.9 4.4-4 18.2-.5 14 3.5 15.3 4.1 15.3 5.9 0 1.9-17.9 23.5-20 24.2-1.1.3-2.8.1-3.9-.4-1.1-.6-2.9-1.1-4-1.1-1.8 0-1.9.3-1.1 2.6.6 1.4 1 2.7 1 2.9 0 .4-24.1 8.5-26.8 9-.9.2-1.8.4-1.9.5-.2.2-.7.4-1.3.5-.5.1-1.2.4-1.5.5-.3.1-.9.4-1.5.5-.5.1-1.2.4-1.5.5-.3.1-.9.4-1.5.5-.5.1-1.2.4-1.5.5-.3.1-.9.4-1.5.5-.5.1-1.2.4-1.5.5-.3.1-.9.4-1.5.5-.5.1-1.1.3-1.2.5-.2.1-1.1.3-2 .5-1 .2-9.4 2.9-18.8 6-17 5.7-17.1 5.7-16.5 8.4l.5 2.6-50.2 16.7c-32.8 11-50.4 16.4-50.9 15.7-.4-.7-5.6.6-15.5 3.9-8.2 2.7-20.3 6.7-26.9 8.7-6.6 2-12.5 4.2-13.1 4.8-.6.7-3 8.6-5.4 17.7-16.4 64.1-36.1 118.2-55.7 153.5-24.9 44.6-54.9 76.3-86.5 91.3-28.5 13.5-64.7 18.4-94.8 12.8-24-4.5-39.2-11.3-55-24.5-22.4-18.6-33.2-41-33.2-68.3.1-55.7 50.6-113 138.1-156.8 16.8-8.3 67.1-30.5 71.4-31.4.7-.2 1.9-.6 2.7-.9 3.9-1.5 50.5-17.8 58.3-20.3 4.9-1.6 9.3-3.6 9.7-4.4.9-1.7 22.9-85.3 23.7-90.1.4-2.1-.2-3.2-3-5.3-3.9-3-11.1-11.9-15-18.7-7.2-12.4-10.7-30.6-8.8-46.3 4.3-36.3 28.3-66.3 71.6-89.6 5.5-2.9 10.6-6.8 16.5-12.6 6.8-6.7 9.7-8.8 14.2-10.4 6.4-2.2 16-2.6 22.2-.9 4.4 1.2 11 7.2 11.9 10.7.7 2.8-1.8 10.3-6.5 19.7-8.4 16.6-21 51.6-28.8 79.7-2.2 8.1-6.4 20.4-9.1 27.5-5.7 14.2-8.1 21.5-7.4 22.2.9.8 14.5-5.1 22.2-9.7 29-17.5 57.6-47.8 83.7-88.7 9.7-15.1 29.4-52.8 35.9-68.5 7.3-17.6 16.8-45.6 20.1-59.3 6.2-25.3 7-31.3 7-53.2 0-19.3-.1-20.3-2.8-28.5-3.6-10.8-6.6-16-12.4-21.1-7.1-6.3-14.3-9.3-22.5-9.3l-6.9-.1-3.6 11c-8.6 25.9-31.1 56.4-50 67.9-12.4 7.5-31.9 12.6-43 11.1-10.9-1.5-21.8-5.8-28.1-11-2.2-2-3.2-2.3-3.5-1.3-.3.7-1.9 6.4-3.6 12.7-3.5 12.7-9.6 27.4-18.9 46-16.4 32.7-30.1 48.9-67.5 79.8l-17.9 14.8-9.7 25c-9.6 25-16.3 38.7-32.8 67-21.9 37.8-33.2 50.8-55.2 63.6-24.7 14.3-53.5 14.2-69.7-.5-11.2-10.1-14.4-31.7-7.5-51.6 5.4-15.6 12.3-26.9 27.7-44.9 14.5-17.1 23.7-24.8 45.8-38.3 7.2-4.4 13.4-8.5 13.5-8.9.2-.5 1-.9 1.8-.9s1.4-.4 1.4-.9-1.6-.5-3.7 0c-6 1.4-16.5 1-22.3-.7-13.3-3.9-23-15.3-27.7-32.4-2.3-8.2-2.3-34.5-.1-46.2.8-4.3 1.1-7.5.7-7.2-.5.3-9.3 13-19.6 28.2-33.9 50.3-45.5 64-63.4 74.6-18.6 11.1-47.2 16.6-62.7 12.1-6.8-2-11.2-4.5-17.1-10-11.3-10.4-18.1-26.1-24.2-56-7.2-35.7-14.9-54.4-24.8-60.6-2.5-1.6-5-2.9-5.7-2.9-.6 0-2.1 3.5-3.4 7.7-17.4 59.5-49.1 142.6-75 196.8-2.9 6-5.4 11.2-5.5 11.5-.5 2-11.1 21.8-19 35.5-43.2 75.3-84.7 115.9-128.2 125.5-44.4 9.8-81.9.5-109.3-27-21.2-21.3-36.3-53.2-44.4-94-3.3-16.3-6.6-40.4-6.6-47.6 0-2.9-.5-3.3-5.7-5.4-10.1-4-30.5-14.7-39.8-20.9-53.6-35.6-88.7-91.5-99.2-158.1-2.7-17.5-2.5-54 .5-71.4 4.4-25.3 10.6-44.6 21.7-67.1 11.6-23.5 24.5-41.6 42.9-60.1 30.6-30.5 69.3-51.3 110.8-59.4 13.6-2.7 12.5-1.1 13.1-18.3l.3-9.7h-16.1l.7-15.4c3.5-77.4 33.4-150.4 88.6-216.6 12.6-15.1 39.5-41.9 55.2-54.9 53.3-44.5 112.4-77.8 179.5-101.3 56.5-19.7 120.9-32.6 183-36.7 18.1-1.2 71.9-1.2 90.5-.1z"/><path d="M674.1 534.4c-9.2 29.6-19 68.3-21.2 84.1-.6 4.4-1.4 8.1-1.9 8.3-.5.2-.7.9-.4 1.5.4 1-20.6 106-22.2 111.1-.6 1.7-.1 1.6 4.2-.9 11-6.4 15.4-9.6 25.4-18.9 31.5-29 51.7-60.5 62.9-97.8 5.4-17.9 6.4-25.4 5.9-42.8-.4-12.2-.9-15.7-3.2-22.3-6.6-19.6-17.5-29-39.2-34l-6.1-1.5-4.2 13.2zM1054.9 907.7c-7.8 5.6-18.8 16.9-23.5 24.1-4.5 6.7-8.8 16.2-10.5 23.2-1.8 7.7-1.6 24.1.4 31.9 1.6 5.9 7.5 18.6 8.4 17.8.2-.2 4.6-14.3 9.8-31.3 5.2-17 12.3-39.8 15.8-50.7 3.6-10.8 6.3-19.7 6.2-19.7-.2 0-3.1 2.1-6.6 4.7zM900 950c-3.9 1.1-8.7 3.8-18 10-17.7 12-37.7 33.6-45.6 49.4-4 7.9-4.5 9.6-4.2 14.5l.3 5.6 4.7-.1c6.6 0 16.2-6.6 30.3-20.8 13.6-13.7 23.1-26.1 29.5-38.9 6.9-13.7 8.1-21.1 3-19.7zM1281.3 1039.6c-.6 1.6 1.8 10 5.9 21.1 2.9 7.9 4.6 7.3 14.7-5.3 4.6-5.8 8.2-10.6 8-10.8-.6-.4-25.6-6.6-26.9-6.6-.6 0-1.3.7-1.7 1.6zM1261.5 1043.9c-7.6 2.6-9.2 4.1-7.4 6.6.4.6 2.4 6.6 4.4 13.5 2.1 6.9 3.9 12.7 4 12.9.2.1 4.7-1.1 10-2.9 7.7-2.6 9.5-3.5 9-4.8-5.5-17.4-9.4-27.7-10.6-27.9-.8-.1-5 1.1-9.4 2.6zM1277.2 1044.8c-1.9 1.3 4.4 19.2 6.8 19.2 1.7 0 1.6-.7-1.2-9.3-3.4-10.3-3.8-10.9-5.6-9.9zM1219.3 1058.2c-20.5 7.1-26.2 9.4-26.6 10.9-.8 2.9 7 25.2 9.2 26.6 1.6 1 6.2-.2 27.8-7.4 14.2-4.7 26.1-8.9 26.5-9.2 1-.8-8.5-29.4-9.8-29.7-.5-.1-12.7 3.8-27.1 8.8zM972.5 1177.1c-7.7 3.2-17.1 6.8-21 8-15.4 4.7-44.8 15.6-59.4 22-78.8 34.9-125.2 89-117.1 136.8 1.4 8.7 7.1 20.4 13.1 27.4 5.8 6.7 16.6 14.1 26.3 17.8 17.4 6.8 44.4 4.4 63.6-5.7 27.1-14.2 52.2-48.8 72.4-99.9 5.6-14.3 9-24.4 21.7-65 3.9-12.7 9.1-28.5 11.5-35.3 2.4-6.7 4-12.2 3.6-12.1-.4 0-7 2.7-14.7 6z"/></svg>